<svg width="102" height="21" viewBox="0 0 102 21" fill="none" xmlns="http://www.w3.org/2000/svg">
<path d="M4.66211 1.51562V20H0.523438V1.51562H4.66211ZM11.9365 9.31055V12.5098H3.50684V9.31055H11.9365ZM12.749 1.51562V4.72754H3.50684V1.51562H12.749ZM22.3467 16.6865V6.26367H26.333V20H22.6006L22.3467 16.6865ZM22.7656 13.8809L23.8574 13.8555C23.8574 14.778 23.7474 15.6286 23.5273 16.4072C23.3158 17.1859 22.9941 17.863 22.5625 18.4385C22.1393 19.014 21.6104 19.4626 20.9756 19.7842C20.3493 20.0973 19.6172 20.2539 18.7793 20.2539C18.1022 20.2539 17.4801 20.1608 16.9131 19.9746C16.3545 19.7799 15.8721 19.4795 15.4658 19.0732C15.0596 18.6585 14.7464 18.1296 14.5264 17.4863C14.3063 16.8346 14.1963 16.056 14.1963 15.1504V6.26367H18.1572V15.1758C18.1572 15.5312 18.1995 15.8359 18.2842 16.0898C18.3773 16.3353 18.5 16.5384 18.6523 16.6992C18.8132 16.86 19.0078 16.9785 19.2363 17.0547C19.4733 17.1309 19.7314 17.1689 20.0107 17.1689C20.7132 17.1689 21.2633 17.0251 21.6611 16.7373C22.0674 16.4411 22.3509 16.0475 22.5117 15.5566C22.681 15.0573 22.7656 14.4987 22.7656 13.8809ZM33.0869 0.5V20H29.1133V0.5H33.0869ZM40.1201 0.5V20H36.1465V0.5H40.1201ZM52.7646 15.125C52.7646 14.8118 52.7181 14.5326 52.625 14.2871C52.5319 14.0332 52.3626 13.8005 52.1172 13.5889C51.8717 13.3773 51.5247 13.1657 51.0762 12.9541C50.6276 12.734 50.0394 12.5098 49.3115 12.2812C48.4821 12.0104 47.6908 11.7057 46.9375 11.3672C46.1927 11.0202 45.5283 10.6182 44.9443 10.1611C44.3604 9.7041 43.8991 9.1709 43.5605 8.56152C43.2305 7.95215 43.0654 7.24121 43.0654 6.42871C43.0654 5.6416 43.2389 4.93066 43.5859 4.2959C43.9329 3.66113 44.4196 3.11947 45.0459 2.6709C45.6722 2.21387 46.4085 1.86686 47.2549 1.62988C48.1012 1.38444 49.0322 1.26172 50.0479 1.26172C51.402 1.26172 52.5911 1.50293 53.6152 1.98535C54.6478 2.45931 55.4518 3.12793 56.0273 3.99121C56.6029 4.84603 56.8906 5.84049 56.8906 6.97461H52.7773C52.7773 6.47526 52.6715 6.03516 52.46 5.6543C52.2568 5.26497 51.9437 4.96029 51.5205 4.74023C51.1058 4.52018 50.5853 4.41016 49.959 4.41016C49.3496 4.41016 48.8376 4.50326 48.4229 4.68945C48.0166 4.86719 47.7077 5.11263 47.4961 5.42578C47.293 5.73893 47.1914 6.08171 47.1914 6.4541C47.1914 6.75033 47.2676 7.02116 47.4199 7.2666C47.5807 7.50358 47.8092 7.72786 48.1055 7.93945C48.4102 8.14258 48.7826 8.33724 49.2227 8.52344C49.6628 8.70964 50.1663 8.88737 50.7334 9.05664C51.7236 9.36979 52.5996 9.7168 53.3613 10.0977C54.1315 10.4785 54.779 10.9102 55.3037 11.3926C55.8285 11.875 56.222 12.4209 56.4844 13.0303C56.7552 13.6396 56.8906 14.3294 56.8906 15.0996C56.8906 15.9206 56.7298 16.6484 56.4082 17.2832C56.0951 17.918 55.638 18.4596 55.0371 18.9082C54.4447 19.3483 53.7337 19.6826 52.9043 19.9111C52.0749 20.1396 51.1481 20.2539 50.124 20.2539C49.193 20.2539 48.2747 20.1354 47.3691 19.8984C46.4635 19.653 45.6426 19.2806 44.9062 18.7812C44.1784 18.2819 43.5944 17.6471 43.1543 16.877C42.7227 16.0983 42.5068 15.1758 42.5068 14.1094H46.6455C46.6455 14.668 46.7259 15.1419 46.8867 15.5312C47.0475 15.9121 47.276 16.221 47.5723 16.458C47.877 16.695 48.2451 16.8643 48.6768 16.9658C49.1084 17.0674 49.5908 17.1182 50.124 17.1182C50.7419 17.1182 51.2412 17.0335 51.6221 16.8643C52.0114 16.6865 52.2992 16.4453 52.4854 16.1406C52.6715 15.8359 52.7646 15.4974 52.7646 15.125ZM66.1074 6.26367V9.04395H57.957V6.26367H66.1074ZM59.8232 2.86133H63.7969V15.6963C63.7969 16.0771 63.8434 16.3691 63.9365 16.5723C64.0296 16.7754 64.182 16.9193 64.3936 17.0039C64.6051 17.0801 64.876 17.1182 65.2061 17.1182C65.443 17.1182 65.6462 17.1097 65.8154 17.0928C65.9847 17.0758 66.1413 17.0547 66.2852 17.0293V19.8984C65.9466 20.0085 65.5869 20.0931 65.2061 20.1523C64.8252 20.2201 64.4105 20.2539 63.9619 20.2539C63.1071 20.2539 62.3665 20.1143 61.7402 19.835C61.1224 19.5557 60.6484 19.1156 60.3184 18.5146C59.9883 17.9053 59.8232 17.1139 59.8232 16.1406V2.86133ZM75.2861 16.7246V10.834C75.2861 10.4193 75.2227 10.0638 75.0957 9.76758C74.9688 9.47135 74.7699 9.23861 74.499 9.06934C74.2282 8.90007 73.877 8.81543 73.4453 8.81543C73.0814 8.81543 72.764 8.87891 72.4932 9.00586C72.2308 9.13281 72.0277 9.31478 71.8838 9.55176C71.7484 9.78874 71.6807 10.0807 71.6807 10.4277H67.7197C67.7197 9.8099 67.8594 9.23438 68.1387 8.70117C68.418 8.16797 68.8158 7.69824 69.332 7.29199C69.8568 6.88574 70.4831 6.57259 71.2109 6.35254C71.9388 6.12402 72.7555 6.00977 73.6611 6.00977C74.736 6.00977 75.6924 6.19173 76.5303 6.55566C77.3766 6.91113 78.0452 7.44857 78.5361 8.16797C79.027 8.87891 79.2725 9.77604 79.2725 10.8594V16.6104C79.2725 17.4398 79.319 18.0915 79.4121 18.5654C79.5137 19.0309 79.6576 19.4372 79.8438 19.7842V20H75.8447C75.6585 19.6022 75.5189 19.1113 75.4258 18.5273C75.3327 17.9349 75.2861 17.334 75.2861 16.7246ZM75.7812 11.6211L75.8066 13.8047H73.8389C73.3988 13.8047 73.0179 13.8597 72.6963 13.9697C72.3831 14.0798 72.1292 14.2321 71.9346 14.4268C71.7399 14.613 71.596 14.833 71.5029 15.0869C71.4183 15.3324 71.376 15.6032 71.376 15.8994C71.376 16.1787 71.4437 16.4326 71.5791 16.6611C71.7145 16.8812 71.9007 17.0547 72.1377 17.1816C72.3747 17.3086 72.6497 17.3721 72.9629 17.3721C73.4792 17.3721 73.9193 17.2705 74.2832 17.0674C74.6556 16.8643 74.9434 16.6188 75.1465 16.3311C75.3496 16.0348 75.4512 15.7598 75.4512 15.5059L76.4033 17.1562C76.251 17.4948 76.0648 17.846 75.8447 18.21C75.6247 18.5654 75.3454 18.8997 75.0068 19.2129C74.6683 19.5176 74.2578 19.7673 73.7754 19.9619C73.3014 20.1566 72.7301 20.2539 72.0615 20.2539C71.1982 20.2539 70.4154 20.0804 69.7129 19.7334C69.0104 19.3779 68.4476 18.8913 68.0244 18.2734C67.6097 17.6556 67.4023 16.9447 67.4023 16.1406C67.4023 15.4212 67.5335 14.7822 67.7959 14.2236C68.0583 13.665 68.4518 13.1911 68.9766 12.8018C69.5098 12.4124 70.1784 12.1204 70.9824 11.9258C71.7865 11.7227 72.7259 11.6211 73.8008 11.6211H75.7812ZM88.8574 6.26367V9.04395H80.707V6.26367H88.8574ZM82.5732 2.86133H86.5469V15.6963C86.5469 16.0771 86.5934 16.3691 86.6865 16.5723C86.7796 16.7754 86.932 16.9193 87.1436 17.0039C87.3551 17.0801 87.626 17.1182 87.9561 17.1182C88.193 17.1182 88.3962 17.1097 88.5654 17.0928C88.7347 17.0758 88.8913 17.0547 89.0352 17.0293V19.8984C88.6966 20.0085 88.3369 20.0931 87.9561 20.1523C87.5752 20.2201 87.1605 20.2539 86.7119 20.2539C85.8571 20.2539 85.1165 20.1143 84.4902 19.835C83.8724 19.5557 83.3984 19.1156 83.0684 18.5146C82.7383 17.9053 82.5732 17.1139 82.5732 16.1406V2.86133ZM98.0742 16.1787C98.0742 15.9248 97.9938 15.7005 97.833 15.5059C97.6807 15.3112 97.4014 15.1335 96.9951 14.9727C96.5973 14.8118 96.0345 14.651 95.3066 14.4902C94.6211 14.3464 93.9821 14.1602 93.3896 13.9316C92.7972 13.6947 92.2809 13.4111 91.8408 13.0811C91.4007 12.7425 91.0579 12.3447 90.8125 11.8877C90.5671 11.4222 90.4443 10.8932 90.4443 10.3008C90.4443 9.72526 90.5671 9.17936 90.8125 8.66309C91.0664 8.14681 91.4303 7.68978 91.9043 7.29199C92.3867 6.89421 92.9707 6.58105 93.6562 6.35254C94.3503 6.12402 95.1374 6.00977 96.0176 6.00977C97.2279 6.00977 98.2731 6.2002 99.1533 6.58105C100.034 6.95345 100.711 7.47819 101.185 8.15527C101.659 8.82389 101.896 9.58984 101.896 10.4531H97.9346C97.9346 10.0977 97.8669 9.78874 97.7314 9.52637C97.596 9.264 97.3887 9.06087 97.1094 8.91699C96.8301 8.76465 96.4619 8.68848 96.0049 8.68848C95.6494 8.68848 95.3363 8.75195 95.0654 8.87891C94.8031 8.9974 94.5957 9.16243 94.4434 9.37402C94.2995 9.58561 94.2275 9.83105 94.2275 10.1104C94.2275 10.305 94.2699 10.4827 94.3545 10.6436C94.4476 10.7959 94.5872 10.9398 94.7734 11.0752C94.9681 11.2021 95.2178 11.3164 95.5225 11.418C95.8356 11.5195 96.2165 11.6169 96.665 11.71C97.6214 11.8877 98.4932 12.1374 99.2803 12.459C100.076 12.7806 100.711 13.2249 101.185 13.792C101.667 14.359 101.908 15.1081 101.908 16.0391C101.908 16.6484 101.769 17.207 101.489 17.7148C101.218 18.2227 100.825 18.667 100.309 19.0479C99.7923 19.4287 99.1745 19.7249 98.4551 19.9365C97.7357 20.1481 96.9232 20.2539 96.0176 20.2539C94.7227 20.2539 93.6266 20.0212 92.7295 19.5557C91.8324 19.0902 91.1553 18.5062 90.6982 17.8037C90.2497 17.0928 90.0254 16.3649 90.0254 15.6201H93.7451C93.762 16.0771 93.8763 16.4495 94.0879 16.7373C94.3079 17.0251 94.5915 17.2367 94.9385 17.3721C95.2855 17.499 95.6748 17.5625 96.1064 17.5625C96.5381 17.5625 96.8978 17.5033 97.1855 17.3848C97.4733 17.2663 97.6934 17.1055 97.8457 16.9023C97.998 16.6908 98.0742 16.4495 98.0742 16.1787Z" fill="#333333"/>
</svg>
